<?xml version="1.0" standalone="no"?><!DOCTYPE svg PUBLIC "-//W3C//DTD SVG 1.1//EN" "http://www.w3.org/Graphics/SVG/1.1/DTD/svg11.dtd"><svg t="1758167711738" class="icon" viewBox="0 0 1024 1024" version="1.1" xmlns="http://www.w3.org/2000/svg" p-id="10879" xmlns:xlink="http://www.w3.org/1999/xlink" width="200" height="200"><path d="M488.727273 290.909091m-197.818182 0a197.818182 197.818182 0 1 0 395.636364 0 197.818182 197.818182 0 1 0-395.636364 0Z" fill="#1E90FF" p-id="10880"></path><path d="M698.181818 491.659636a186.181818 186.181818 0 0 1 186.181818 186.181819v23.272727a186.181818 186.181818 0 0 1-186.181818 186.181818H279.272727a186.181818 186.181818 0 0 1-186.181818-186.181818v-23.272727a186.181818 186.181818 0 0 1 186.181818-186.181819h418.909091zM651.636364 605.090909h-93.090909a46.545455 46.545455 0 0 0 0 93.090909h93.090909a46.545455 46.545455 0 0 0 0-93.090909z" fill="#C3E1FF" p-id="10881"></path></svg>