<?xml version="1.0" encoding="UTF-8"?>
<svg id="Layer_2" data-name="Layer 2" xmlns="http://www.w3.org/2000/svg" viewBox="0 0 264.36 289.39">
  <defs>
    <style>
      .cls-1 {
        fill: none;
        stroke: #a0cd60;
        stroke-linecap: round;
        stroke-linejoin: round;
        stroke-width: 18.65px;
      }

      .cls-2 {
        fill: #fff;
      }

      .cls-3 {
        fill: #999;
      }
    </style>
  </defs>
  <g id="Layer_1-2" data-name="Layer 1">
    <g id="Generative_Object" data-name="Generative Object">
      <g>
        <path class="cls-3" d="M127.24.35c23.56-4.61,23.4,37.49,27.97,53.2,6.23,21.42,25.61,66.66,27.42,85.56.64,6.72-15.75,97.14-18.65,105.3-.67,1.88-5.39,8.16-7.13,9.32-8.48,5.67-48.07,6.62-54.3-4.94-2.45-4.54-21.62-93.61-21.94-100.92-.39-8.84,31.06-125.26,36.2-137.11,1.74-4.02,5.78-9.51,10.42-10.42Z"/>
        <path class="cls-2" d="M120.66,68.36c6.44,16.1-3.48,66.11,2.74,78.43.2.4,3.47,3.67,3.84,3.84,24.88,11.7,10.9-60,15.36-71.3l21.39,61.98c.37,4.68-15.54,87.22-17.55,92.14-3.19,7.82-19.98,5.6-27.42,3.29l-19.74-91.04,21.39-77.33Z"/>
      </g>
      <g>
        <polyline class="cls-1" points="255.03 217.54 252.62 278.31 191.41 280.06"/>
        <polyline class="cls-1" points="191.41 31.06 254.36 31.74 255.03 92.49"/>
        <polyline class="cls-1" points="9.32 217.54 11.74 278.31 76.24 280.06"/>
        <polyline class="cls-1" points="76.24 31.06 11.74 32.82 9.32 97.98"/>
      </g>
    </g>
  </g>
</svg>